<svg width="133" height="132" viewBox="0 0 133 132" fill="none" xmlns="http://www.w3.org/2000/svg">
<circle cx="66.1455" cy="66" r="66" fill="#E6E6E6"/>
<g clip-path="url(#clip0_240_323)">
<path d="M67.3821 101.809L57.391 111.824C55.527 113.685 52.6956 114.053 50.4361 112.736L43.5871 105.872C41.3417 103.614 41.3417 99.9552 43.5871 97.7048L53.437 87.8323L67.3821 101.809Z" fill="#0088FE"/>
<path d="M84.1514 85.0011L70.2345 98.9504L56.2893 84.9732L54.863 83.5433L43.5657 72.22C42.4783 71.1301 41.8782 69.6793 41.8782 68.1364C41.8782 66.5936 42.4713 65.1499 43.5587 64.06L53.4085 54.1874L84.1514 85.0011Z" fill="#0131FD"/>
<path d="M96.6702 72.4535L87.0041 82.142L73.0588 68.1648L71.6326 66.7352L56.2611 51.3283L54.8348 49.8987L53.4085 48.4691L43.5375 38.5753C41.6663 36.6927 41.3204 33.7416 42.6902 31.491L49.2427 24.9234C50.33 23.8336 51.7774 23.232 53.3167 23.232C54.856 23.232 56.3034 23.8336 57.3908 24.9234L67.1489 34.7041L68.5752 36.1336L70.0015 37.5632L83.9466 51.5406L85.373 52.9702L86.7922 54.3927L96.6633 64.2865C98.9157 66.537 98.9157 70.203 96.6702 72.4535Z" fill="#011BB8"/>
</g>
<defs>
<clipPath id="clip0_240_323">
<rect width="56.496" height="90.288" fill="white" transform="translate(41.8574 23.232)"/>
</clipPath>
</defs>
</svg>
